PathFileType  4	(X/Y/Z) C:\Users\antoi\Documents\MyRepositories\mobilecap\ResultsAnalysis
DataRate	CameraRate	NumFrames	NumMarkers	Units	OrigDataRate	OrigDataStartFrame	OrigNumFrames
100.0	100.0	4	51	mm	100.0	104	138
Frame#	Time	r_knee			r_shank_antsup			r_ankle			r_calc			r_5meta			r_toe			L_knee			L_shank_antsup			L_ankle			L_calc			L_5meta			L_toe			r_sh2			r_sh3			r_sh4			L_sh2			L_sh3			r_thigh1			r_thigh2			r_thigh3			r_thigh4			r_thigh5			L_thigh1			L_thigh2			L_thigh3			L_thigh4			r.ASIS			r.PSIS			L.ASIS			L.PSIS			C7			R_Shoulder			L_Shoulder			R_Sternum			L_Sternum			R_humerus			R_elbow_med			R_elbow_lat			R_forearm			R_wrist_radius			R_wrist_ulna			L_humerus			L_elbow_med			L_elbow_lat			L_forearm			L_wrist_radius			L_wrist_ulna			R_HJC			L_HJC			R_HJC_reg			L_HJC_reg			
		X1	Y1	Z1	X2	Y2	Z2	X3	Y3	Z3	X4	Y4	Z4	X5	Y5	Z5	X6	Y6	Z6	X7	Y7	Z7	X8	Y8	Z8	X9	Y9	Z9	X10	Y10	Z10	X11	Y11	Z11	X12	Y12	Z12	X13	Y13	Z13	X14	Y14	Z14	X15	Y15	Z15	X16	Y16	Z16	X17	Y17	Z17	X18	Y18	Z18	X19	Y19	Z19	X20	Y20	Z20	X21	Y21	Z21	X22	Y22	Z22	X23	Y23	Z23	X24	Y24	Z24	X25	Y25	Z25	X26	Y26	Z26	X27	Y27	Z27	X28	Y28	Z28	X29	Y29	Z29	X30	Y30	Z30	X31	Y31	Z31	X32	Y32	Z32	X33	Y33	Z33	X34	Y34	Z34	X35	Y35	Z35	X36	Y36	Z36	X37	Y37	Z37	X38	Y38	Z38	X39	Y39	Z39	X40	Y40	Z40	X41	Y41	Z41	X42	Y42	Z42	X43	Y43	Z43	X44	Y44	Z44	X45	Y45	Z45	X46	Y46	Z46	X47	Y47	Z47	X48	Y48	Z48	X49	Y49	Z49	X50	Y50	Z50	X51	Y51	Z51	

104	1.03000000	1274.77180	561.71650	-109.19295	1333.58058	456.70194	-112.30344	1348.90183	110.55039	-141.51379	1312.62086	69.83754	-209.66504	1483.50770	68.44907	-65.74563	1526.01102	113.48822	-118.17323	976.95167	545.53080	-425.41159	994.33535	434.43065	-404.00324	843.61520	111.21845	-378.86811	777.08368	87.19901	-331.10914	979.41560	34.07747	-403.94101	1011.16569	54.61200	-334.51035	1371.93079	350.67091	-131.34533	1268.90484	426.35622	-81.19418	1310.88807	317.27444	-84.37546	913.37204	445.25140	-445.07301	912.45859	324.04104	-450.18890	1279.46158	809.72450	-122.40625	1322.34791	707.09940	-133.90834	1301.14972	667.66680	-82.18431	1200.30208	768.64116	-53.50859	1246.87132	662.21542	-72.59397	1115.94062	773.54472	-454.55734	1093.71554	640.23261	-437.20002	1006.43618	786.65930	-482.02132	984.39974	651.31273	-453.93413	1171.21953	1037.84963	-133.83776	967.88285	1069.43113	-218.40518	1175.21733	1032.79473	-400.14574	968.06154	1074.80013	-315.14856	1061.92759	1570.34288	-279.09694	1105.89389	1495.55921	-87.57970	1148.95716	1515.85442	-445.95944	1191.38816	1481.36624	-239.75380	1193.79570	1479.08030	-286.68178	1080.75533	1328.54150	-12.02359	985.46068	1117.76278	-66.96640	992.48784	1141.46679	13.36121	1068.99377	986.88783	45.05649	1087.42879	866.80902	63.34844	1050.63133	862.39627	84.41237	1188.26201	1355.33889	-523.29786	1141.44171	1129.46176	-507.45317	1190.45906	1155.83718	-567.76654	1325.79580	1078.62098	-499.60633	1412.90254	996.44199	-494.24608	1396.12122	976.56734	-535.89075	1089.93369	957.33534	-168.69063	1093.27300	945.07730	-381.70385	1101.73645	947.98703	-176.62212	1102.06011	957.72413	-352.15689	
105	1.04000000	1281.36766	555.38789	-109.98357	1346.53313	455.46430	-113.09354	1382.70563	109.58069	-138.52966	1347.89565	65.27132	-204.93517	1521.62241	77.14517	-65.22332	1559.69786	124.18869	-119.00120	982.22729	545.65336	-425.09292	998.48817	434.36001	-404.04025	844.19332	112.49801	-378.75972	777.59415	89.06899	-330.99446	979.51981	33.97972	-403.99218	1011.50198	54.38262	-334.68260	1390.86645	351.50605	-131.45191	1284.19941	421.76533	-80.26549	1332.93157	315.33093	-82.90619	917.54407	446.17061	-444.85465	915.20827	324.94681	-450.09426	1288.73657	801.85796	-123.12806	1328.94530	697.95469	-135.21086	1307.33767	659.10419	-83.24106	1209.11986	762.36978	-53.85000	1253.13633	655.05915	-73.09086	1124.89784	771.61805	-454.85768	1100.62054	638.70010	-437.59361	1015.44490	786.54306	-481.96781	991.35070	651.66830	-453.39663	1184.92847	1034.66761	-133.18099	981.41504	1066.62690	-217.53815	1188.39499	1030.22116	-399.29706	981.46259	1072.54935	-314.26284	1075.28579	1567.64351	-277.30900	1118.96388	1492.50843	-85.87484	1162.47039	1513.45089	-444.15772	1204.62847	1478.45474	-238.00094	1207.12926	1476.24767	-284.93100	1093.38770	1325.43198	-10.57478	997.74263	1115.02418	-66.11831	1004.27918	1138.73806	14.27003	1079.55657	983.67466	46.52290	1097.04896	863.44709	64.99002	1060.29576	859.42169	85.84107	1201.88973	1353.31985	-522.11997	1155.90896	1127.34228	-506.84888	1204.64588	1154.02205	-567.44092	1340.56570	1078.79635	-498.03757	1428.82765	997.95352	-491.79156	1412.77114	977.93256	-533.63853	1103.32279	954.34993	-168.14219	1106.42840	942.63016	-381.18757	1115.34935	944.61990	-176.33893	1115.43395	955.35189	-351.68030	
106	1.05000000	1289.06287	549.70102	-110.37776	1359.42206	454.17964	-113.62419	1413.26517	109.11780	-135.78750	1379.42214	61.38997	-199.97444	1556.57813	85.55466	-66.14668	1589.74073	134.43570	-121.42240	988.25291	545.64959	-424.93152	1003.21310	434.10232	-404.10715	844.87268	113.85609	-378.77065	778.16918	91.09994	-331.00588	979.64443	33.87394	-404.05741	1011.86549	54.14582	-334.86058	1408.58004	352.10312	-131.42204	1299.21268	417.87171	-79.19088	1353.45014	313.84192	-81.36457	922.36058	447.01194	-444.72729	918.45456	325.78177	-450.10702	1298.34211	794.44862	-124.03435	1335.99033	689.36158	-136.65392	1314.63385	651.26958	-84.11407	1218.89471	756.55256	-53.66230	1260.44682	648.38297	-73.07828	1134.27625	769.61403	-455.23458	1108.05345	637.11059	-438.11583	1024.90561	786.29932	-481.85165	998.83465	651.89489	-452.91300	1198.73860	1031.28388	-132.62217	994.92907	1063.66308	-216.54883	1201.70302	1027.57880	-398.59373	994.94680	1070.06244	-313.26861	1088.68156	1564.79322	-275.36491	1132.20568	1489.26152	-84.04049	1175.93873	1510.86753	-442.25956	1217.94687	1475.39865	-236.16295	1220.50011	1473.27864	-283.09380	1106.25239	1322.08751	-9.02500	1010.20246	1112.05930	-65.18250	1016.29399	1135.76749	15.26502	1090.38322	980.25876	48.02176	1106.99446	859.87527	66.63898	1070.19927	856.19650	87.26688	1215.40192	1351.07494	-520.83933	1170.23718	1125.04275	-506.03628	1218.60056	1151.99720	-566.99560	1355.02713	1078.60328	-496.47357	1444.45943	999.07475	-489.45568	1429.02906	978.89755	-531.47426	1116.86382	951.16116	-167.65103	1119.64669	940.07931	-380.73329	1128.92140	941.21594	-176.16662	1128.95070	952.80412	-351.35077	
107	1.06000000	1298.60095	544.99183	-110.43878	1372.59092	452.67652	-113.86980	1439.68267	108.62139	-133.48946	1406.24344	57.85110	-195.15132	1587.27989	92.61097	-68.31909	1615.44962	142.94327	-125.17766	995.13144	545.46693	-424.91607	1008.59039	433.60453	-404.18918	845.68841	115.28535	-378.95278	778.81927	93.29570	-331.20652	979.79609	33.75893	-404.14824	1012.23549	53.89692	-335.02644	1425.11936	352.03945	-131.28399	1314.07386	414.61807	-78.08055	1372.22001	312.43634	-79.91919	927.92614	447.72236	-444.72011	922.29772	326.51215	-450.24595	1308.60966	788.13316	-125.17279	1344.16453	682.09671	-138.26219	1323.82096	644.84842	-84.86423	1230.08459	751.59778	-53.00629	1269.57983	642.68879	-72.66660	1144.16650	767.51254	-455.59346	1116.12595	635.43021	-438.71241	1034.91514	785.87993	-481.62744	1006.96224	651.91370	-452.51770	1212.50960	1027.71479	-132.09811	1008.36490	1060.60695	-215.43120	1215.10834	1024.87077	-398.00050	1008.48436	1067.36561	-312.14524	1102.12332	1561.83118	-273.26742	1145.61737	1485.83419	-82.08384	1189.36107	1508.14620	-440.27703	1231.34449	1472.22222	-234.24062	1233.90165	1470.20617	-281.17231	1119.33553	1318.52534	-7.38440	1022.82509	1108.88079	-64.14293	1028.53656	1132.56082	16.34824	1101.47365	976.65203	49.55383	1117.28985	856.12080	68.29300	1080.31724	852.72605	88.68834	1228.79332	1348.63833	-519.44245	1184.35022	1122.56146	-505.09578	1232.34493	1149.80470	-566.42709	1369.18429	1078.05127	-494.91186	1459.82983	999.81750	-487.25534	1444.89515	979.45702	-529.40919	1130.44382	947.79993	-167.17366	1132.87100	937.44003	-380.29584	1142.30777	937.84319	-176.03129	1142.52089	950.07811	-351.11888	
